<?xml version="1.0" encoding="utf-8"?>
<!-- Generator: Adobe Illustrator 18.0.0, SVG Export Plug-In . SVG Version: 6.00 Build 0)  -->
<!DOCTYPE svg PUBLIC "-//W3C//DTD SVG 1.1//EN" "http://www.w3.org/Graphics/SVG/1.1/DTD/svg11.dtd">
<svg version="1.1" id="Layer_1" xmlns="http://www.w3.org/2000/svg" xmlns:xlink="http://www.w3.org/1999/xlink" x="0px" y="0px"
	 viewBox="4.6 4.8 20.6 20.5" enable-background="new 4.6 4.8 20.6 20.5" xml:space="preserve">
<g>
	<defs>
		<rect id="SVGID_1_" x="-954.2" y="-7.4" width="1411.2" height="1003.5"/>
	</defs>
	<clipPath id="SVGID_2_">
		<use xlink:href="#SVGID_1_"  overflow="visible"/>
	</clipPath>
	<g clip-path="url(#SVGID_2_)">
		<path fill="#03BF9B" d="M7.6,22.3c4,4,10.5,4,14.6,0c4-4,4-10.5,0-14.6c-4-4-10.5-4-14.6,0C3.6,11.8,3.6,18.3,7.6,22.3z"/>
	</g>
</g>
<g>
	<defs>
		<rect id="SVGID_3_" x="-954.2" y="-7.4" width="1411.2" height="1003.5"/>
	</defs>
	<clipPath id="SVGID_4_">
		<use xlink:href="#SVGID_3_"  overflow="visible"/>
	</clipPath>
	<g clip-path="url(#SVGID_4_)">
		<path fill="#FFFFFF" d="M18.6,17.8L15.8,15l2.8-2.8c0.3-0.3,0.3-0.7,0-1c-0.3-0.3-0.7-0.3-1,0L14.8,14L12,11.2
			c-0.3-0.3-0.7-0.3-1,0c-0.3,0.3-0.3,0.7,0,1l2.8,2.8L11,17.8c-0.3,0.3-0.3,0.7,0,1c0.3,0.3,0.7,0.3,1,0l2.8-2.8l2.8,2.8
			c0.3,0.3,0.7,0.3,1,0C18.9,18.5,18.9,18.1,18.6,17.8z"/>
	</g>
</g>
</svg>
