<?xml version="1.0" encoding="utf-8"?>
<!-- Generator: Adobe Illustrator 18.0.0, SVG Export Plug-In . SVG Version: 6.00 Build 0)  -->
<!DOCTYPE svg PUBLIC "-//W3C//DTD SVG 1.1//EN" "http://www.w3.org/Graphics/SVG/1.1/DTD/svg11.dtd">
<svg version="1.1" id="Layer_1" xmlns="http://www.w3.org/2000/svg" xmlns:xlink="http://www.w3.org/1999/xlink" x="0px" y="0px"
	 viewBox="0 0 50 50" enable-background="new 0 0 50 50" xml:space="preserve">
<g>
	<g>
		<defs>
			<rect id="SVGID_1_" x="-2326.6" y="-28.7" width="3425.2" height="2435.7"/>
		</defs>
		<clipPath id="SVGID_2_">
			<use xlink:href="#SVGID_1_"  overflow="visible"/>
		</clipPath>
		<g clip-path="url(#SVGID_2_)">
			<path fill="#E04141" d="M7.9,43.4c9.7,9.7,25.5,9.7,35.4,0C53,33.7,53,17.9,43.3,8C33.6-1.7,17.8-1.7,7.9,8
				C-1.8,17.9-1.8,33.7,7.9,43.4z"/>
		</g>
	</g>
</g>
<g>
	<g>
		<defs>
			<rect id="SVGID_3_" x="-2326.6" y="-28.7" width="3425.2" height="2435.7"/>
		</defs>
		<clipPath id="SVGID_4_">
			<use xlink:href="#SVGID_3_"  overflow="visible"/>
		</clipPath>
		<g clip-path="url(#SVGID_4_)">
			<path fill="#FFFFFF" d="M34.6,32.5l-6.8-6.8l6.8-6.8c0.7-0.7,0.7-1.7,0-2.4c-0.7-0.7-1.7-0.7-2.4,0l-6.8,6.8l-6.8-6.8
				c-0.7-0.7-1.7-0.7-2.4,0c-0.7,0.7-0.7,1.7,0,2.4l6.8,6.8l-6.8,6.8c-0.7,0.7-0.7,1.7,0,2.4s1.7,0.7,2.4,0l6.8-6.8l6.8,6.8
				c0.7,0.7,1.7,0.7,2.4,0S35.3,33.2,34.6,32.5z"/>
		</g>
	</g>
</g>
</svg>
