<?xml version="1.0" encoding="utf-8" ?>
<svg xmlns="http://www.w3.org/2000/svg" xmlns:xlink="http://www.w3.org/1999/xlink" width="24" height="24">
	<defs>
		<clipPath id="clip_0">
			<rect x="-1893" y="-359" width="2062" height="1706" clip-rule="evenodd"/>
		</clipPath>
	</defs>
	<g clip-path="url(#clip_0)">
		<path fill="rgb(23,195,162)" stroke="none" transform="translate(2.8335 2.66669)" d="M2 0L16.3333 0Q16.4358 0 16.5368 0.00932124Q16.6377 0.0186425 16.7362 0.037209Q16.8347 0.0557754 16.93 0.0834357Q17.0253 0.111096 17.1167 0.147624Q17.208 0.184153 17.2946 0.229252Q17.3812 0.27435 17.4623 0.327651Q17.5435 0.380953 17.6185 0.442021Q17.6936 0.50309 17.7619 0.571429Q17.8302 0.639767 17.8913 0.714818Q17.9524 0.789868 18.0057 0.871019Q18.059 0.95217 18.1041 1.03876Q18.1492 1.12535 18.1857 1.21667Q18.2222 1.30799 18.2499 1.4033Q18.2776 1.49861 18.2961 1.59713Q18.3147 1.69564 18.324 1.79657Q18.3333 1.89749 18.3333 2L18.3333 14.6667Q18.3333 14.7692 18.324 14.8701Q18.3147 14.971 18.2961 15.0695Q18.2776 15.1681 18.2499 15.2634Q18.2222 15.3587 18.1857 15.45Q18.1492 15.5413 18.1041 15.6279Q18.059 15.7145 18.0057 15.7956Q17.9524 15.8768 17.8913 15.9518Q17.8302 16.0269 17.7619 16.0952Q17.6936 16.1636 17.6185 16.2246Q17.5435 16.2857 17.4623 16.339Q17.3812 16.3923 17.2946 16.4374Q17.208 16.4825 17.1167 16.519Q17.0253 16.5556 16.93 16.5832Q16.8347 16.6109 16.7362 16.6295Q16.6377 16.648 16.5368 16.6573Q16.4358 16.6667 16.3333 16.6667L2 16.6667Q1.89749 16.6667 1.79657 16.6573Q1.69564 16.648 1.59713 16.6295Q1.49861 16.6109 1.4033 16.5832Q1.30799 16.5556 1.21667 16.519Q1.12535 16.4825 1.03876 16.4374Q0.95217 16.3923 0.871019 16.339Q0.789868 16.2857 0.714818 16.2246Q0.639767 16.1636 0.571429 16.0952Q0.50309 16.0269 0.442021 15.9518Q0.380953 15.8768 0.327651 15.7956Q0.27435 15.7145 0.229252 15.6279Q0.184153 15.5413 0.147624 15.45Q0.111096 15.3587 0.0834357 15.2634Q0.0557754 15.1681 0.037209 15.0695Q0.0186425 14.971 0.00932124 14.8701Q0 14.7692 0 14.6667L0 2Q0 1.89749 0.00932124 1.79657Q0.0186425 1.69564 0.037209 1.59713Q0.0557754 1.49861 0.0834357 1.4033Q0.111096 1.30799 0.147624 1.21667Q0.184153 1.12535 0.229252 1.03876Q0.27435 0.95217 0.327651 0.871019Q0.380953 0.789868 0.442021 0.714818Q0.50309 0.639767 0.571429 0.571429Q0.639767 0.50309 0.714818 0.442021Q0.789868 0.380953 0.871019 0.327651Q0.95217 0.27435 1.03876 0.229252Q1.12535 0.184153 1.21667 0.147624Q1.30799 0.111096 1.4033 0.0834357Q1.49861 0.0557754 1.59713 0.037209Q1.69564 0.0186425 1.79657 0.00932124Q1.89749 0 2 0Z"/>
	</g>
	<defs>
		<clipPath id="clip_1">
			<rect x="-1893" y="-359" width="2062" height="1706" clip-rule="evenodd"/>
		</clipPath>
	</defs>
	<g clip-path="url(#clip_1)">
		<path fill="rgb(255,255,255)" stroke="none" transform="translate(5.28564 10.0741)" d="M1.51101 2.77778C2.34552 2.77778 3.02202 2.15595 3.02202 1.38889C3.02202 0.621827 2.34552 0 1.51101 0C0.676503 0 0 0.621827 0 1.38889C0 2.15595 0.676503 2.77778 1.51101 2.77778Z"/>
	</g>
	<defs>
		<clipPath id="clip_2">
			<rect x="-1893" y="-359" width="2062" height="1706" clip-rule="evenodd"/>
		</clipPath>
	</defs>
	<g clip-path="url(#clip_2)">
		<path fill="rgb(255,255,255)" stroke="none" transform="translate(10.4229 10.0741)" d="M1.51101 2.77778C2.34552 2.77778 3.02202 2.15595 3.02202 1.38889C3.02202 0.621827 2.34552 0 1.51101 0C0.676503 0 0 0.621827 0 1.38889C0 2.15595 0.676503 2.77778 1.51101 2.77778Z"/>
	</g>
	<defs>
		<clipPath id="clip_3">
			<rect x="-1893" y="-359" width="2062" height="1706" clip-rule="evenodd"/>
		</clipPath>
	</defs>
	<g clip-path="url(#clip_3)">
		<path fill="rgb(255,255,255)" stroke="none" transform="translate(15.4595 10.0741)" d="M1.51101 2.77778C2.34552 2.77778 3.02202 2.15595 3.02202 1.38889C3.02202 0.621827 2.34552 0 1.51101 0C0.676503 0 0 0.621827 0 1.38889C0 2.15595 0.676503 2.77778 1.51101 2.77778Z"/>
	</g>

</svg>