<?xml version="1.0" encoding="UTF-8"?>
<svg width="24px" height="24px" viewBox="0 0 24 24" version="1.1" xmlns="http://www.w3.org/2000/svg" xmlns:xlink="http://www.w3.org/1999/xlink">
    <!-- Generator: Sketch 52.4 (67378) - http://www.bohemiancoding.com/sketch -->
    <title>icon_weiss_outline_close</title>
    <desc>Created with Sketch.</desc>
    <g id="icon_weiss_outline_close" stroke="none" stroke-width="1" fill="none" fill-rule="evenodd">
        <g id="Group-6" transform="translate(2.000000, 2.000000)" fill="#FFFFFF">
            <path d="M10.1421356,18.5421356 C5.50998793,18.5421356 1.74213562,14.7742833 1.74213562,10.1421356 C1.74213562,5.51050485 5.50998793,1.74213562 10.1421356,1.74213562 C14.7737664,1.74213562 18.5421356,5.51050485 18.5421356,10.1421356 C18.5421356,14.7742833 14.7737664,18.5421356 10.1421356,18.5421356 Z M0.142135624,10.1421356 C0.142135624,15.6559019 4.62784991,20.1421356 10.1421356,20.1421356 C15.6559019,20.1421356 20.1421356,15.6559019 20.1421356,10.1421356 C20.1421356,4.62836939 15.6559019,0.142135624 10.1421356,0.142135624 C4.62784991,0.142135624 0.142135624,4.62836939 0.142135624,10.1421356 Z" id="2B" transform="translate(10.142136, 10.142136) rotate(-270.000000) translate(-10.142136, -10.142136) "></path>
            <polygon id="Fill-4" points="14.5 7.21497338 13.2859894 6 10.2495186 9.03743346 7.21401065 6 6 7.21497338 9.03550799 10.2504814 6 13.2869521 7.21401065 14.5009627 10.2495186 11.464492 13.2859894 14.5009627 14.5 13.2869521 11.464492 10.2504814"></polygon>
        </g>
    </g>
</svg>