<?xml version="1.0" encoding="UTF-8"?>
<svg width="40px" height="40px" viewBox="0 0 40 40" version="1.1" xmlns="http://www.w3.org/2000/svg" xmlns:xlink="http://www.w3.org/1999/xlink">
    <!-- Generator: Sketch 55.1 (78136) - https://sketchapp.com -->
    <title>icon_tv</title>
    <desc>Created with Sketch.</desc>
    <g id="icon_tv" stroke="none" stroke-width="1" fill="none" fill-rule="evenodd">
        <g>
            <path d="M27.8003,13.025 L6.8006,13.025 C5.645,13.025 4.7,13.97 4.7,15.1247 L4.7,32.9753 C4.7,34.13 5.645,35.075 6.8006,35.075 L27.8003,35.075 C28.955,35.075 29.9,34.13 29.9,32.9753 L29.9,15.1247 C29.9,13.97 28.955,13.025 27.8003,13.025 M27.8003,14.375 C28.2062,14.375 28.55,14.7188 28.55,15.1247 L28.55,32.9753 C28.55,33.3812 28.2062,33.725 27.8003,33.725 L6.8006,33.725 C6.3938,33.725 6.05,33.3812 6.05,32.9753 L6.05,15.1247 C6.05,14.7188 6.3938,14.375 6.8006,14.375 L27.8003,14.375" id="Fill-1" fill="#92B3C3"></path>
            <path d="M32.6,10.1 L6.5,10.1 C4.025,10.1 2,12.125 2,14.6 L2,33.5 C2,35.975 4.025,38 6.5,38 L33.5,38 C35.975,38 38,35.975 38,33.5 L38,15.5 C38,12.53 35.57,10.1 32.6,10.1 M32.6,11.45 C34.8329,11.45 36.65,13.2671 36.65,15.5 L36.65,33.5 C36.65,35.237 35.237,36.65 33.5,36.65 L6.5,36.65 C4.763,36.65 3.35,35.237 3.35,33.5 L3.35,14.6 C3.35,12.863 4.763,11.45 6.5,11.45 L32.6,11.45" id="Fill-3" fill="#92B3C3"></path>
            <path d="M15.5,3.8 C15.5,4.7936 14.6936,5.6 13.7,5.6 C12.7064,5.6 11.9,4.7936 11.9,3.8 C11.9,2.8064 12.7064,2 13.7,2 C14.6936,2 15.5,2.8064 15.5,3.8" id="Fill-5" fill="#92B3C3"></path>
            <path d="M27.875,6.05 C27.875,7.0436 27.0686,7.85 26.075,7.85 C25.0814,7.85 24.275,7.0436 24.275,6.05 C24.275,5.0564 25.0814,4.25 26.075,4.25 C27.0686,4.25 27.875,5.0564 27.875,6.05" id="Fill-7" fill="#92B3C3"></path>
            <path d="M13.7,3.8 L21.125,11" id="Stroke-9" stroke="#92B3C3" stroke-width="1.5" stroke-linejoin="round"></path>
            <path d="M26.3,5.6 L21.125,11" id="Stroke-11" stroke="#92B3C3" stroke-width="1.5" stroke-linejoin="round"></path>
        </g>
    </g>
</svg>