<?xml version="1.0" encoding="utf-8"?>
<!-- Generator: Adobe Illustrator 18.0.0, SVG Export Plug-In . SVG Version: 6.00 Build 0)  -->
<!DOCTYPE svg PUBLIC "-//W3C//DTD SVG 1.1//EN" "http://www.w3.org/Graphics/SVG/1.1/DTD/svg11.dtd">
<svg version="1.1" id="Layer_1" xmlns="http://www.w3.org/2000/svg" xmlns:xlink="http://www.w3.org/1999/xlink" x="0px" y="0px"
	 viewBox="0 0 24 48" enable-background="new 0 0 24 48" xml:space="preserve">
<g>
	<path fill="#00DAA4" d="M2.7,14.2l1.5,0.3c0.2,0.5,0.4,1,0.6,1.4l-0.9,1.2c-0.4,0.5-0.3,1.2,0.1,1.7L5.3,20
		c0.2,0.2,0.6,0.4,0.9,0.4c0.3,0,0.5-0.1,0.7-0.2l1.2-0.9c0.4,0.2,0.9,0.4,1.4,0.6l0.2,1.5c0.1,0.6,0.6,1.1,1.3,1.1h1.8
		c0.6,0,1.2-0.5,1.3-1.1l0.2-1.5c0.5-0.2,1-0.3,1.4-0.6l1.2,0.9c0.2,0.2,0.5,0.2,0.7,0.2c0.3,0,0.7-0.1,0.9-0.4l1.3-1.3
		c0.4-0.4,0.5-1.1,0.1-1.7l-0.9-1.2c0.2-0.5,0.4-0.9,0.6-1.4l1.5-0.2c0.6-0.1,1-0.6,1.1-1.2V11c0-0.6-0.5-1.1-1.1-1.2l-1.5-0.2
		c-0.2-0.5-0.3-1-0.6-1.4l0.9-1.2c0.4-0.5,0.3-1.2-0.1-1.7L18.7,4c-0.2-0.2-0.6-0.4-0.9-0.4c-0.3,0-0.5,0.1-0.7,0.2l-1.2,0.9
		c-0.5-0.2-1-0.5-1.5-0.6l-0.2-1.4c-0.1-0.6-0.6-1-1.2-1.1H11c-0.6,0-1.1,0.5-1.2,1.1L9.5,4.1C9,4.3,8.6,4.5,8.1,4.7L6.9,3.9
		C6.7,3.7,6.4,3.6,6.2,3.6C5.8,3.6,5.5,3.8,5.3,4L4,5.3C3.5,5.8,3.5,6.5,3.8,7l0.9,1.2C4.5,8.6,4.3,9.1,4.1,9.6L2.7,9.9
		c-0.6,0.1-1.1,0.6-1.1,1.3V13C1.6,13.6,2.1,14.1,2.7,14.2z M2.8,11.1c0-0.1,0-0.1,0.1-0.1l1.8-0.3c0.2,0,0.4-0.2,0.5-0.4
		C5.3,9.6,5.6,9,5.9,8.4C6,8.2,6,8,5.9,7.8L4.8,6.3c0,0,0-0.1,0-0.1l1.3-1.3c0,0,0.1,0,0.1,0c0,0,0,0,0.1,0l1.5,1.1
		C7.9,6,8.2,6,8.4,5.9C9,5.6,9.6,5.3,10.2,5.2c0.2-0.1,0.4-0.2,0.4-0.5l0.3-1.8c0-0.1,0.1-0.1,0.1-0.1h1.8c0.1,0,0.1,0,0.1,0.1
		l0.3,1.8c0,0.2,0.2,0.4,0.4,0.5c0.7,0.2,1.3,0.4,1.9,0.8c0.2,0.1,0.4,0.1,0.6,0l1.5-1.1c0,0,0,0,0.1,0c0,0,0.1,0,0.1,0l1.3,1.3
		c0,0,0,0.1,0,0.1l-1.1,1.5C18,8,18,8.2,18.1,8.4c0.3,0.6,0.6,1.2,0.8,1.8c0.1,0.2,0.2,0.4,0.5,0.4l1.8,0.3c0.1,0,0.1,0.1,0.1,0.1
		v1.8h0c0,0.1,0,0.1-0.1,0.1l-1.8,0.3c-0.2,0-0.4,0.2-0.5,0.4c-0.2,0.6-0.4,1.3-0.8,1.8c-0.1,0.2-0.1,0.4,0,0.6l1.1,1.5
		c0,0,0,0.1,0,0.1l-1.3,1.3c0,0-0.1,0-0.1,0c0,0,0,0-0.1,0l-1.5-1.1c-0.2-0.1-0.4-0.1-0.6,0c-0.6,0.3-1.2,0.6-1.8,0.8
		c-0.2,0.1-0.4,0.2-0.4,0.5L13,21.1c0,0.1-0.1,0.1-0.1,0.1h-1.8c-0.1,0-0.1,0-0.1-0.1l-0.3-1.8c0-0.2-0.2-0.4-0.4-0.5
		c-0.6-0.2-1.2-0.4-1.8-0.7C8.4,18.1,8.3,18,8.2,18c-0.1,0-0.2,0-0.3,0.1l-1.5,1.1c0,0,0,0-0.1,0c0,0-0.1,0-0.1,0l-1.3-1.3
		c0,0,0-0.1,0-0.1l1.1-1.5c0.1-0.2,0.1-0.4,0-0.6c-0.3-0.6-0.6-1.2-0.8-1.8c-0.1-0.2-0.2-0.4-0.5-0.4l-1.8-0.3
		c-0.1,0-0.1-0.1-0.1-0.1V11.1z"/>
	<path fill="#00DAA4" d="M12,16.5c2.5,0,4.5-2,4.5-4.5c0-2.5-2-4.5-4.5-4.5c-2.5,0-4.5,2-4.5,4.5C7.5,14.5,9.5,16.5,12,16.5z
		 M12,8.7c1.8,0,3.3,1.5,3.3,3.3s-1.5,3.3-3.3,3.3c-1.8,0-3.3-1.5-3.3-3.3S10.2,8.7,12,8.7z"/>
</g>
<g>
	<path fill="#FFFFFF" d="M2.7,38.2l1.5,0.3c0.2,0.5,0.4,1,0.6,1.4l-0.9,1.2c-0.4,0.5-0.3,1.2,0.1,1.7L5.3,44
		c0.2,0.2,0.6,0.4,0.9,0.4c0.3,0,0.5-0.1,0.7-0.2l1.2-0.9c0.4,0.2,0.9,0.4,1.4,0.6l0.2,1.5c0.1,0.6,0.6,1.1,1.3,1.1h1.8
		c0.6,0,1.2-0.5,1.3-1.1l0.2-1.5c0.5-0.2,1-0.3,1.4-0.6l1.2,0.9c0.2,0.2,0.5,0.2,0.7,0.2c0.3,0,0.7-0.1,0.9-0.4l1.3-1.3
		c0.4-0.4,0.5-1.1,0.1-1.7l-0.9-1.2c0.2-0.5,0.4-0.9,0.6-1.4l1.5-0.2c0.6-0.1,1-0.6,1.1-1.2V35c0-0.6-0.5-1.1-1.1-1.2l-1.5-0.2
		c-0.2-0.5-0.3-1-0.6-1.4l0.9-1.2c0.4-0.5,0.3-1.2-0.1-1.7L18.7,28c-0.2-0.2-0.6-0.4-0.9-0.4c-0.3,0-0.5,0.1-0.7,0.2l-1.2,0.9
		c-0.5-0.2-1-0.5-1.5-0.6l-0.2-1.4c-0.1-0.6-0.6-1-1.2-1.1H11c-0.6,0-1.1,0.5-1.2,1.1l-0.3,1.5c-0.5,0.2-1,0.4-1.4,0.6l-1.2-0.9
		c-0.2-0.2-0.5-0.2-0.7-0.2c-0.3,0-0.7,0.1-0.9,0.4L4,29.3c-0.4,0.4-0.5,1.1-0.1,1.7l0.9,1.2c-0.2,0.5-0.4,0.9-0.6,1.4l-1.4,0.2
		c-0.6,0.1-1.1,0.6-1.1,1.3V37C1.6,37.6,2.1,38.1,2.7,38.2z M2.8,35.1c0-0.1,0-0.1,0.1-0.1l1.8-0.3c0.2,0,0.4-0.2,0.5-0.4
		c0.2-0.6,0.4-1.3,0.7-1.8C6,32.2,6,32,5.9,31.8l-1.1-1.5c0,0,0-0.1,0-0.1l1.3-1.3c0,0,0.1,0,0.1,0c0,0,0,0,0.1,0l1.5,1.1
		c0.2,0.1,0.4,0.1,0.6,0c0.6-0.3,1.2-0.6,1.8-0.8c0.2-0.1,0.4-0.2,0.4-0.5l0.3-1.8c0-0.1,0.1-0.1,0.1-0.1h1.8c0.1,0,0.1,0,0.1,0.1
		l0.3,1.8c0,0.2,0.2,0.4,0.4,0.5c0.7,0.2,1.3,0.4,1.9,0.8c0.2,0.1,0.4,0.1,0.6,0l1.5-1.1c0,0,0,0,0.1,0c0,0,0.1,0,0.1,0l1.3,1.3
		c0,0,0,0.1,0,0.1l-1.1,1.5c-0.1,0.2-0.1,0.4,0,0.6c0.3,0.6,0.6,1.2,0.8,1.8c0.1,0.2,0.2,0.4,0.5,0.4l1.8,0.3c0.1,0,0.1,0.1,0.1,0.1
		v1.8h0c0,0.1,0,0.1-0.1,0.1l-1.8,0.3c-0.2,0-0.4,0.2-0.5,0.4c-0.2,0.6-0.4,1.3-0.8,1.8c-0.1,0.2-0.1,0.4,0,0.6l1.1,1.5
		c0,0,0,0.1,0,0.1l-1.3,1.3c0,0-0.1,0-0.1,0c0,0,0,0-0.1,0l-1.5-1.1c-0.2-0.1-0.4-0.1-0.6,0c-0.6,0.3-1.2,0.6-1.8,0.8
		c-0.2,0.1-0.4,0.2-0.4,0.5L13,45.1c0,0.1-0.1,0.1-0.1,0.1h-1.8c-0.1,0-0.1,0-0.1-0.1l-0.3-1.8c0-0.2-0.2-0.4-0.4-0.5
		c-0.6-0.2-1.2-0.4-1.8-0.7C8.4,42.1,8.3,42,8.2,42c-0.1,0-0.2,0-0.3,0.1l-1.5,1.1c0,0,0,0-0.1,0c0,0-0.1,0-0.1,0l-1.3-1.3
		c0,0,0-0.1,0-0.1l1.1-1.5c0.1-0.2,0.1-0.4,0-0.6c-0.3-0.6-0.6-1.2-0.8-1.8c-0.1-0.2-0.2-0.4-0.5-0.4l-1.8-0.3
		c-0.1,0-0.1-0.1-0.1-0.1V35.1z"/>
	<path fill="#FFFFFF" d="M12,40.5c2.5,0,4.5-2,4.5-4.5c0-2.5-2-4.5-4.5-4.5c-2.5,0-4.5,2-4.5,4.5C7.5,38.5,9.5,40.5,12,40.5z
		 M12,32.7c1.8,0,3.3,1.5,3.3,3.3s-1.5,3.3-3.3,3.3c-1.8,0-3.3-1.5-3.3-3.3S10.2,32.7,12,32.7z"/>
</g>
</svg>
