<?xml version="1.0" encoding="utf-8" ?>
<svg xmlns="http://www.w3.org/2000/svg" xmlns:xlink="http://www.w3.org/1999/xlink" width="24" height="24">
	<path fill="rgb(255,255,255)" stroke="none" transform="translate(6 0.6)" d="M0.5 0L0.5 4.3"/>
	<path fill="rgb(164,183,203)" stroke="none" transform="translate(0.888672 0.58889)" d="M22.3 19.6L22.3 4.9C22.3 3.2 20.8 1.7 19.1 1.7L17.4 1.7L17.4 0L15.8 0L15.8 1.7L6.5 1.7L6.5 0L4.9 0L4.9 1.7L3.1 1.7C1.5 1.7 0 3.2 0 4.9L0 19.6C0 21.3 1.5 22.8 3.2 22.8L19.1 22.8C20 22.8 20.9 22.4 21.5 21.8C22.1 21.2 22.4 20.4 22.3 19.6ZM3.2 3.3L4.9 3.3L4.9 4.3L6.5 4.3L6.5 3.3L15.8 3.3L15.8 4.3L17.4 4.3L17.4 3.3L19.1 3.3C20 3.3 20.7 4 20.7 4.9L20.7 6.5L1.6 6.5L1.6 4.9C1.6 4 2.3 3.3 3.2 3.3ZM19.1 21.2C19.6 21.2 20 21 20.3 20.7C20.6 20.4 20.7 20.1 20.7 19.7L20.7 8.1L1.6 8.1L1.6 19.6C1.6 20.5 2.3 21.2 3.2 21.2L19.1 21.2Z" fill-rule="evenodd"/>
	<path fill="rgb(164,183,203)" stroke="none" transform="translate(3.2002 9.6)" d="M1.4 5.3L3.9 5.3C4.7 5.3 5.3 4.6 5.3 3.8L5.3 1.4C5.3 0.7 4.6 0 3.9 0L1.4 0C0.7 0 0 0.7 0 1.4L0 3.9C0 4.6 0.7 5.3 1.4 5.3ZM3.7 3.7L1.6 3.7L1.6 1.6L3.7 1.6L3.7 3.7Z" fill-rule="evenodd"/>
	<path fill="rgb(164,183,203)" stroke="none" transform="translate(9.40039 9.6)" d="M1.4 5.3L3.8 5.3C4.6 5.3 5.2 4.6 5.2 3.8L5.2 1.4C5.2 0.7 4.5 0 3.8 0L1.4 0C0.7 0 0 0.7 0 1.4L0 3.9C0 4.6 0.7 5.3 1.4 5.3ZM3.6 3.7L1.6 3.7L1.6 1.6L3.6 1.6L3.6 3.7Z" fill-rule="evenodd"/>
	<path fill="rgb(164,183,203)" stroke="none" transform="translate(15.5 9.6)" d="M1.4 5.3L3.8 5.3C4.6 5.3 5.2 4.6 5.2 3.8L5.2 1.4C5.2 0.7 4.5 0 3.8 0L1.4 0C0.7 0 0 0.7 0 1.4L0 3.9C0 4.6 0.7 5.3 1.4 5.3ZM3.6 3.7L1.6 3.7L1.6 1.6L3.6 1.6L3.6 3.7Z" fill-rule="evenodd"/>
	<path fill="rgb(164,183,203)" stroke="none" transform="translate(3.2002 15.8)" d="M1.4 5.2L3.9 5.2C4.6 5.2 5.3 4.5 5.3 3.8L5.3 1.4C5.3 0.7 4.6 0 3.9 0L1.4 0C0.7 0 0 0.7 0 1.4L0 3.8C0 4.5 0.7 5.2 1.4 5.2ZM3.7 3.6L1.6 3.6L1.6 1.6L3.7 1.6L3.7 3.6Z" fill-rule="evenodd"/>
	<path fill="rgb(164,183,203)" stroke="none" transform="translate(9.40039 15.8)" d="M1.4 5.2L3.8 5.2C4.5 5.2 5.2 4.5 5.2 3.8L5.2 1.4C5.2 0.7 4.5 0 3.8 0L1.4 0C0.7 0 0 0.7 0 1.4L0 3.8C0 4.5 0.7 5.2 1.4 5.2ZM3.6 3.6L1.6 3.6L1.6 1.6L3.6 1.6L3.6 3.6Z" fill-rule="evenodd"/>
	<path fill="rgb(164,183,203)" stroke="none" transform="translate(15.5 15.8)" d="M1.4 5.2L3.8 5.2C4.5 5.2 5.2 4.5 5.2 3.8L5.2 1.4C5.2 0.7 4.5 0 3.8 0L1.4 0C0.7 0 0 0.7 0 1.4L0 3.8C0 4.5 0.7 5.2 1.4 5.2ZM3.6 3.6L1.6 3.6L1.6 1.6L3.6 1.6L3.6 3.6Z" fill-rule="evenodd"/>

</svg>