<?xml version="1.0" encoding="UTF-8"?>
<svg width="40px" height="40px" viewBox="0 0 40 40" version="1.1" xmlns="http://www.w3.org/2000/svg" xmlns:xlink="http://www.w3.org/1999/xlink">
    <!-- Generator: Sketch 55.1 (78136) - https://sketchapp.com -->
    <title>icon_print</title>
    <desc>Created with Sketch.</desc>
    <defs>
        <polygon id="path-1" points="0 0.652444444 19.5553778 0.652444444 19.5553778 6.22222222 0 6.22222222"></polygon>
    </defs>
    <g id="icon_print" stroke="none" stroke-width="1" fill="none" fill-rule="evenodd">
        <g>
            <path d="M27.5555556,8.45893333 L8,8.45893333 L8,33.3478222 C8,35.8029333 9.99022222,37.7922667 12.4444444,37.7922667 L27.5555556,37.7922667 C30.0097778,37.7922667 32,35.8029333 32,33.3478222 L32,12.9033778 C32,10.4482667 30.0097778,8.45893333 27.5555556,8.45893333 M27.5555556,9.80204444 C29.2657778,9.80204444 30.6568889,11.1931556 30.6568889,12.9033778 L30.6568889,33.3478222 C30.6568889,35.0580444 29.2657778,36.4491556 27.5555556,36.4491556 L12.4444444,36.4491556 C10.7342222,36.4491556 9.34311111,35.0580444 9.34311111,33.3478222 L9.34311111,9.80204444 L27.5555556,9.80204444" id="Fill-1" fill="#92B3C3"></path>
            <g id="Group-5" transform="translate(8.000000, 2.236711)">
                <mask id="mask-2" fill="white">
                    <use xlink:href="#path-1"></use>
                </mask>
                <g id="Clip-4"></g>
                <path d="M18.2122667,6.22222222 L18.2122667,4.87911111 L18.2122667,2.43111111 C18.2122667,2.16266667 17.9882667,1.99555556 17.7811556,1.99555556 C17.7367111,1.99555556 17.6913778,2.00266667 17.6460444,2.01777778 L8.65226667,4.87911111 L8.72337778,4.87911111 L4.5856,6.22222222 L-0.000177777778,6.22222222 L17.2389333,0.736888889 C17.4202667,0.68 17.6024889,0.651555556 17.7811556,0.651555556 C18.7269333,0.651555556 19.5553778,1.41866667 19.5553778,2.43111111 L19.5553778,6.22222222 L18.6664889,6.22222222 L18.2122667,6.22222222 Z" id="Fill-3" fill="#92B3C3" mask="url(#mask-2)"></path>
            </g>
            <path d="M13.3333333,14.7922667 L26.6666667,14.7922667" id="Stroke-6" stroke="#92B3C3" stroke-width="1.5" stroke-linecap="round"></path>
            <path d="M13.3333333,22.1256 L23.1111111,22.1256" id="Stroke-8" stroke="#92B3C3" stroke-width="1.5" stroke-linecap="round"></path>
            <path d="M13.3333333,18.4589333 L26.6666667,18.4589333" id="Stroke-10" stroke="#92B3C3" stroke-width="1.5" stroke-linecap="round"></path>
            <path d="M21.9275556,25.2896889 L14.4964444,25.2896889 C13.3622222,25.2896889 12.4342222,26.2176889 12.4342222,27.3510222 L12.4342222,30.9492444 C12.4342222,32.0843556 13.3622222,33.0123556 14.4964444,33.0123556 L21.9275556,33.0123556 C23.0617778,33.0123556 23.9897778,32.0843556 23.9897778,30.9492444 L23.9897778,27.3510222 C23.9897778,26.2176889 23.0617778,25.2896889 21.9275556,25.2896889 M21.9275556,26.6230222 C22.3231111,26.6230222 22.6564444,26.9563556 22.6564444,27.3510222 L22.6564444,30.9492444 C22.6564444,31.3448 22.3231111,31.6781333 21.9275556,31.6781333 L14.4964444,31.6781333 C14.1008889,31.6781333 13.7675556,31.3448 13.7675556,30.9492444 L13.7675556,27.3510222 C13.7675556,26.9563556 14.1008889,26.6230222 14.4964444,26.6230222 L21.9275556,26.6230222" id="Fill-12" fill="#92B3C3"></path>
        </g>
    </g>
</svg>