<?xml version="1.0" encoding="UTF-8"?>
<svg width="24px" height="24px" viewBox="0 0 24 24" version="1.1" xmlns="http://www.w3.org/2000/svg" xmlns:xlink="http://www.w3.org/1999/xlink">
    <!-- Generator: Sketch 52.4 (67378) - http://www.bohemiancoding.com/sketch -->
    <title>icon_grun_delete</title>
    <desc>Created with Sketch.</desc>
    <defs>
        <polygon id="path-1" points="0.0004 0.4 20 0.4 20 21 0.0004 21"></polygon>
        <polygon id="path-3" points="0 21.6 20 21.6 20 1 0 1"></polygon>
    </defs>
    <g id="icon_grun_delete" stroke="none" stroke-width="1" fill="none" fill-rule="evenodd">
        <polygon id="Bounds" points="0 0 24 0 24 24 0 24"></polygon>
        <g id="Group-7" transform="translate(2.000000, 1.000000)">
            <g id="Group-3" transform="translate(0.000000, 0.600000)">
                <mask id="mask-2" fill="white">
                    <use xlink:href="#path-1"></use>
                </mask>
                <g id="Clip-2"></g>
                <path d="M16.4004,17.9 C16.4004,18.7 15.7994,19.3 15.0004,19.3 L5.0004,19.3 C4.2004,19.3 3.6004,18.7 3.6004,17.9 L3.6004,4.8 L16.4004,4.8 L16.4004,17.9 Z M20.0004,3.2 L14.2004,3.2 L14.2004,2.3 C14.2004,1.2 13.2994,0.4 12.2994,0.4 L7.7994,0.4 C6.7004,0.4 5.7994,1.3 5.7994,2.3 L5.7994,3.1 L0.0004,3.1 L0.0004,4.8 L1.9004,4.8 L1.9004,17.9 C1.9004,19.6 3.2994,21 5.0004,21 L15.0004,21 C16.7004,21 18.0994,19.6 18.0994,17.9 L18.0994,4.8 L20.0004,4.8 L20.0004,3.2 Z" id="Fill-1" fill="#00C09B" mask="url(#mask-2)"></path>
            </g>
            <mask id="mask-4" fill="white">
                <use xlink:href="#path-3"></use>
            </mask>
            <g id="Clip-5"></g>
            <polygon id="Fill-4" fill="#00C09B" mask="url(#mask-4)" points="11.4 16.8 13.099 16.8 13.099 8.5 11.4 8.5"></polygon>
            <polygon id="Fill-6" fill="#00C09B" mask="url(#mask-4)" points="6.9 16.8 8.6 16.8 8.6 8.5 6.9 8.5"></polygon>
        </g>
    </g>
</svg>