<?xml version="1.0" encoding="utf-8" ?>
<svg xmlns="http://www.w3.org/2000/svg" xmlns:xlink="http://www.w3.org/1999/xlink" width="25" height="21">
	<path fill="rgb(164,183,203)" stroke="none" transform="matrix(0.98 0 0 0.98 10.2686 0.268555)" d="M5.07161 13.9074L1.30739 10.1432L5.07161 6.37901C5.43261 6.01801 5.43265 5.43265 5.07161 5.07161C4.71058 4.71058 4.12525 4.71058 3.76422 5.07161L0 8.83583L-3.76422 5.07161C-4.12521 4.71062 -4.71058 4.71058 -5.07161 5.07161C-5.43265 5.43265 -5.07161 6.37901 -5.07161 6.37901L-1.30739 10.1432L-5.07161 13.9074C-5.43261 14.2684 -5.43265 14.8538 -5.07161 15.2148C-4.71058 15.5759 -4.12525 15.5759 -3.76422 15.2148L0 11.4506L3.76422 15.2148C4.12521 15.5758 4.71058 15.5759 5.07161 15.2148C5.43265 14.8538 5.43261 14.2684 5.07161 13.9074Z"/>

</svg>