<?xml version="1.0" encoding="UTF-8"?>
<svg width="40px" height="40px" viewBox="0 0 40 40" version="1.1" xmlns="http://www.w3.org/2000/svg" xmlns:xlink="http://www.w3.org/1999/xlink">
    <!-- Generator: Sketch 55.1 (78136) - https://sketchapp.com -->
    <title>icon_radio</title>
    <desc>Created with Sketch.</desc>
    <g id="icon_radio" stroke="none" stroke-width="1" fill="none" fill-rule="evenodd">
        <g>
            <circle id="Oval" stroke="#92B3C3" stroke-width="1.5" cx="30.6" cy="28.6" r="3.4"></circle>
            <path d="M33.15,10.335 C34.870367,10.335 36.265,11.729633 36.265,13.45 L36.265,31.25 C36.265,32.970367 34.870367,34.365 33.15,34.365 L6.45,34.365 C4.729633,34.365 3.335,32.970367 3.335,31.25 L3.335,13.45 C3.335,11.729633 4.729633,10.335 6.45,10.335 L33.15,10.335 L33.15,10.335 Z M33.15,9 L6.45,9 C3.99233286,9 2,10.9923329 2,13.45 L2,31.25 C2,33.7076671 3.99233286,35.7 6.45,35.7 L33.15,35.7 C35.6076671,35.7 37.6,33.7076671 37.6,31.25 L37.6,13.45 C37.6,10.9923329 35.6076671,9 33.15,9 Z" id="Shape" fill="#92B3C3" fill-rule="nonzero"></path>
            <path d="M32.8570588,13.3023529 C33.231801,13.3421206 33.5278794,13.638199 33.5676471,14.0129412 L33.5676471,20.3194118 C33.5278794,20.6941539 33.231801,20.9902324 32.8570588,21.03 L6.74294118,21.03 C6.36819902,20.9902324 6.07212059,20.6941539 6.03235294,20.3194118 L6.03235294,14.0129412 C6.07212059,13.638199 6.36819902,13.3421206 6.74294118,13.3023529 L32.8570588,13.3023529 L32.8570588,13.3023529 Z M32.8570588,11.97 L6.74294118,11.97 C6.20111949,11.97 5.68148941,12.1852378 5.29836362,12.5683636 C4.91523783,12.9514894 4.7,13.4711195 4.7,14.0129412 L4.7,20.3194118 C4.7,21.447697 5.61465592,22.3623529 6.74294118,22.3623529 L32.8570588,22.3623529 C33.9853441,22.3623529 34.9,21.447697 34.9,20.3194118 L34.9,14.0129412 C34.9,12.8846559 33.9853441,11.97 32.8570588,11.97 L32.8570588,11.97 Z" id="Shape" fill="#92B3C3" fill-rule="nonzero"></path>
            <circle id="Oval" fill="#92B3C3" fill-rule="nonzero" cx="30.6" cy="4.6" r="1.6"></circle>
            <path d="M30.6,4.8 L30.6,9.3" id="Path" stroke="#92B3C3" stroke-width="1.5" stroke-linejoin="round"></path>
        </g>
    </g>
</svg>