<?xml version="1.0" encoding="utf-8"?>
<!-- Generator: Adobe Illustrator 18.0.0, SVG Export Plug-In . SVG Version: 6.00 Build 0)  -->
<!DOCTYPE svg PUBLIC "-//W3C//DTD SVG 1.1//EN" "http://www.w3.org/Graphics/SVG/1.1/DTD/svg11.dtd">
<svg version="1.1" id="Layer_1" xmlns="http://www.w3.org/2000/svg" xmlns:xlink="http://www.w3.org/1999/xlink" x="0px" y="0px"
	 viewBox="0 0 24 48" enable-background="new 0 0 24 48" xml:space="preserve">
<g>
	<g>
		<path fill="#00DAA4" d="M12,6.2c-2.5,0-4.6,2.3-4.6,5.2c0,2.9,2.1,5.2,4.6,5.2c2.5,0,4.6-2.3,4.6-5.2C16.6,8.5,14.6,6.2,12,6.2z
			 M12,15.2c-1.9,0-3.4-1.7-3.4-3.8c0-2.1,1.5-3.8,3.4-3.8c1.9,0,3.4,1.7,3.4,3.8C15.4,13.5,13.9,15.2,12,15.2z"/>
	</g>
	<path fill="none" stroke="#00DAA4" stroke-width="1.6" d="M5.9,19.3c0.3-2,1.7-3.7,3.5-4.5"/>
	<g>
		<path fill="none" stroke="#00DAA4" stroke-width="1.6" d="M14.6,14.8c0.7,0.3,1.3,0.7,1.8,1.2c0.9,0.9,1.5,2,1.7,3.3"/>
	</g>
	<g>
		<path fill="#00DAA4" d="M12,1.8C6.4,1.8,1.8,6.4,1.8,12S6.4,22.2,12,22.2S22.2,17.6,22.2,12S17.6,1.8,12,1.8z M12,20.8
			c-4.9,0-8.8-4-8.8-8.8s4-8.8,8.8-8.8s8.8,4,8.8,8.8S16.9,20.8,12,20.8z"/>
	</g>
</g>
<g>
	<g>
		<path fill="#FFFFFF" d="M12,30.2c-2.5,0-4.6,2.3-4.6,5.2c0,2.9,2.1,5.2,4.6,5.2c2.5,0,4.6-2.3,4.6-5.2
			C16.6,32.5,14.6,30.2,12,30.2z M12,39.2c-1.9,0-3.4-1.7-3.4-3.8c0-2.1,1.5-3.8,3.4-3.8c1.9,0,3.4,1.7,3.4,3.8
			C15.4,37.5,13.9,39.2,12,39.2z"/>
	</g>
	<path fill="none" stroke="#FFFFFF" stroke-width="1.6" d="M5.9,43.3c0.3-2,1.7-3.7,3.5-4.5"/>
	<g>
		<path fill="none" stroke="#FFFFFF" stroke-width="1.6" d="M14.6,38.8c0.7,0.3,1.3,0.7,1.8,1.2c0.9,0.9,1.5,2,1.7,3.3"/>
	</g>
	<g>
		<path fill="#FFFFFF" d="M12,25.8C6.4,25.8,1.8,30.4,1.8,36S6.4,46.2,12,46.2S22.2,41.6,22.2,36S17.6,25.8,12,25.8z M12,44.8
			c-4.9,0-8.8-4-8.8-8.8s4-8.8,8.8-8.8s8.8,4,8.8,8.8S16.9,44.8,12,44.8z"/>
	</g>
</g>
</svg>
