<?xml version="1.0" encoding="UTF-8"?>
<svg width="24px" height="24px" viewBox="0 0 24 24" version="1.1" xmlns="http://www.w3.org/2000/svg" xmlns:xlink="http://www.w3.org/1999/xlink">
    <!-- Generator: Sketch 52.4 (67378) - http://www.bohemiancoding.com/sketch -->
    <title>icon_grun_duplicate</title>
    <desc>Created with Sketch.</desc>
    <g id="icon_grun_duplicate" stroke="none" stroke-width="1" fill="none" fill-rule="evenodd">
        <g id="icon">
            <polygon id="Bounds" points="0 0 24 0 24 24 0 24"></polygon>
            <path d="M17,7 L17,4 C17,2.8954305 16.1045695,2 15,2 L4,2 C2.8954305,2 2,2.8954305 2,4 L2,15 C2,16.1045695 2.8954305,17 4,17 L7,17 L7,20 C7,21.1045695 7.8954305,22 9,22 L20,22 C21.1045695,22 22,21.1045695 22,20 L22,9 C22,7.8954305 21.1045695,7 20,7 L17,7 Z M7,15.3333333 L4.66666667,15.3333333 C4.11438192,15.3333333 3.66666667,14.8856181 3.66666667,14.3333333 L3.66666667,4.66666667 C3.66666667,4.11438192 4.11438192,3.66666667 4.66666667,3.66666667 L14.3333333,3.66666667 C14.8856181,3.66666667 15.3333333,4.11438192 15.3333333,4.66666667 L15.3333333,7 L9,7 C7.8954305,7 7,7.8954305 7,9 L7,15.3333333 Z M19.3333333,20.3333333 L9.66666667,20.3333333 C9.11438192,20.3333333 8.66666667,19.8856181 8.66666667,19.3333333 L8.66666667,9.66666667 C8.66666667,9.11438192 9.11438192,8.66666667 9.66666667,8.66666667 L19.3333333,8.66666667 C19.8856181,8.66666667 20.3333333,9.11438192 20.3333333,9.66666667 L20.3333333,19.3333333 C20.3333333,19.8856181 19.8856181,20.3333333 19.3333333,20.3333333 Z M17.8333333,13.6666667 L15.3333333,13.6666667 L15.3333333,11.1666667 L13.6666667,11.1666667 L13.6666667,13.6666667 L11.1666667,13.6666667 L11.1666667,15.3333333 L13.6666667,15.3333333 L13.6666667,17.8333333 L15.3333333,17.8333333 L15.3333333,15.3333333 L17.8333333,15.3333333 L17.8333333,13.6666667 Z" id="Shape" fill="#03BF9B" fill-rule="nonzero"></path>
        </g>
    </g>
</svg>