<?xml version="1.0" encoding="utf-8" ?>
<svg xmlns="http://www.w3.org/2000/svg" xmlns:xlink="http://www.w3.org/1999/xlink" width="24" height="24">
	<path fill="none" stroke="rgb(3,191,155)" stroke-width="1.6" stroke-miterlimit="4" transform="translate(2 21)" d="M0 0.30303L19.3939 0.30303"/>
	<defs>
		<clipPath id="clip_0">
			<rect x="3.7949219" y="1.0001183" width="17.694969" height="17.693157" clip-rule="evenodd"/>
		</clipPath>
	</defs>
	<g clip-path="url(#clip_0)">
		<path fill="rgb(3,191,155)" stroke="none" transform="translate(3.79492 1.00012)" d="M15.7723 0.784106L16.9104 1.92031C17.4158 2.42666 17.6951 3.09926 17.6951 3.81556C17.6951 4.53091 17.4158 5.20446 16.9104 5.70986L6.67791 15.9423C6.58101 16.0383 6.46131 16.1086 6.33021 16.1466L1.02541 17.6628C0.952264 17.6827 0.878164 17.6932 0.804064 17.6932C0.594114 17.6932 0.388914 17.6105 0.235964 17.4576C0.0288637 17.2514 -0.0490363 16.9493 0.0307637 16.6681L1.54696 11.3633C1.58496 11.2322 1.65431 11.1125 1.75121 11.0156L11.9827 0.784106C13.0287 -0.261844 14.7292 -0.260894 15.7723 0.784106ZM1.97446 15.7191L5.68801 14.6579L13.6889 6.65701L11.0356 4.00461L3.03561 12.0055L1.97446 15.7191Z" fill-rule="evenodd"/>
	</g>

</svg>