<?xml version="1.0" encoding="utf-8" ?>
<svg xmlns="http://www.w3.org/2000/svg" xmlns:xlink="http://www.w3.org/1999/xlink" width="24" height="24">
	<defs>
		<clipPath id="clip_0">
			<rect x="-1395" y="-24" width="1440" height="1024" clip-rule="evenodd"/>
		</clipPath>
	</defs>
	<g clip-path="url(#clip_0)">
		<path fill="rgb(3,191,155)" stroke="none" transform="translate(3 5.39746)" d="M0 7.36917C2.58474e-15 4.48907 1.42652 1.80595 3.81581 0.191717C4.30013 -0.135494 4.95791 -0.00808366 5.28512 0.476185C5.61225 0.960636 5.48493 1.61829 5.00066 1.9455C3.19467 3.16558 2.11646 5.1931 2.11646 7.36917C2.11646 10.9753 5.05031 13.9092 8.65646 13.9092C12.2626 13.9092 15.1965 10.9753 15.1965 7.36917C15.1965 5.18664 14.1134 3.15581 12.2992 1.93668C11.814 1.61051 11.6852 0.953133 12.0111 0.468046C12.3372 -0.016996 12.9947 -0.145953 13.4798 0.179985C15.8799 1.79308 17.3129 4.48061 17.3129 7.36917C17.3129 12.1423 13.4297 16.0256 8.65646 16.0256C3.88329 16.0256 0 12.1423 0 7.36917Z"/>
	</g>
	<defs>
		<clipPath id="clip_1">
			<rect x="-1395" y="-24" width="1440" height="1024" clip-rule="evenodd"/>
		</clipPath>
	</defs>
	<g clip-path="url(#clip_1)">
		<path fill="rgb(3,191,155)" stroke="none" transform="translate(10.8066 2.49414)" d="M2 0.77131L2 8.87007C2 9.29605 1.55228 9.64138 1 9.64138C0.447715 9.64138 0 9.29605 0 8.87007L2.36848e-15 0.77131C2.36848e-15 0.345327 0.447715 -2.49762e-17 1 0C1.55228 2.85442e-17 2 0.345327 2 0.77131Z"/>
	</g>

</svg>