<?xml version="1.0" encoding="utf-8" ?>
<svg xmlns="http://www.w3.org/2000/svg" xmlns:xlink="http://www.w3.org/1999/xlink" width="19" height="20">
	<defs>
		<clipPath id="clip_0">
			<rect x="-359.28027" y="-103.71973" width="1382.4" height="983.03998" clip-rule="evenodd"/>
		</clipPath>
	</defs>
	<g clip-path="url(#clip_0)">
		<path fill="rgb(255,255,255)" stroke="none" transform="matrix(0.96 0 0 0.96 1.04053 0.919922)" d="M13.7764 12.8202L18.3764 17.6045C18.7656 18.0093 18.7527 18.6546 18.3482 19.0438C18.1579 19.227 17.9072 19.3277 17.6429 19.3277C17.3636 19.3277 17.1031 19.2168 16.9093 19.0156L12.2743 14.195C10.9583 15.1199 9.41891 15.6071 7.80357 15.6071C3.50075 15.6071 0 12.1064 0 7.80357C0 3.50075 3.50075 0 7.80357 0C12.1064 0 15.6071 3.50075 15.6071 7.80357C15.6071 9.64521 14.9591 11.4143 13.7764 12.8202ZM13.5714 7.80357C13.5714 4.62311 10.984 2.03571 7.80357 2.03571C4.62311 2.03571 2.03571 4.62311 2.03571 7.80357C2.03571 10.984 4.62311 13.5714 7.80357 13.5714C10.984 13.5714 13.5714 10.984 13.5714 7.80357Z" fill-rule="evenodd"/>
	</g>

</svg>