<?xml version="1.0" encoding="UTF-8"?>
<svg width="40px" height="40px" viewBox="0 0 40 40" version="1.1" xmlns="http://www.w3.org/2000/svg" xmlns:xlink="http://www.w3.org/1999/xlink">
    <!-- Generator: Sketch 55.1 (78136) - https://sketchapp.com -->
    <title>icon_online</title>
    <desc>Created with Sketch.</desc>
    <defs>
        <polygon id="path-1" points="0 0.225 35.99973 0.225 35.99973 27.225 0 27.225"></polygon>
    </defs>
    <g id="icon_online" stroke="none" stroke-width="1" fill="none" fill-rule="evenodd">
        <g>
            <g id="Group-3" transform="translate(2.000000, 3.675000)">
                <mask id="mask-2" fill="white">
                    <use xlink:href="#path-1"></use>
                </mask>
                <g id="Clip-2"></g>
                <path d="M30.68793,0.225 L4.42683,0.225 C1.99233,0.225 -0.00027,2.2167 -0.00027,4.6512 L-0.00027,22.7979 C-0.00027,25.2324 1.99233,27.225 4.42683,27.225 L31.57263,27.225 C34.00803,27.225 35.99973,25.2324 35.99973,22.7979 L35.99973,5.5368 C35.99973,2.6154 33.60933,0.225 30.68793,0.225 M30.68793,1.575 C32.87223,1.575 34.64973,3.3525 34.64973,5.5368 L34.64973,22.7979 C34.64973,24.4953 33.27003,25.875 31.57263,25.875 L4.42683,25.875 C2.73033,25.875 1.34973,24.4953 1.34973,22.7979 L1.34973,4.6512 C1.34973,2.9556 2.73033,1.575 4.42683,1.575 L30.68793,1.575" id="Fill-1" fill="#9AB8C7" mask="url(#mask-2)"></path>
            </g>
            <path d="M14.90015,29.55 C14.90015,29.55 14.90015,34.6503 12.35045,34.6503 C12.35045,34.6503 11.07515,34.6503 11.07515,35.9247 C11.07515,35.9247 11.07515,37.2 12.35045,37.2 L20.00045,37.2" id="Stroke-4" stroke="#9AB8C7" stroke-width="1.5"></path>
            <path d="M25.09985,29.55 C25.09985,29.55 25.09985,34.6503 27.64955,34.6503 C27.64955,34.6503 28.92485,34.6503 28.92485,35.9247 C28.92485,35.9247 28.92485,37.2 27.64955,37.2 L19.99955,37.2" id="Stroke-6" stroke="#9AB8C7" stroke-width="1.5"></path>
            <path d="M33.3875,6.88125 L6.6125,6.88125 C5.5604,6.88125 4.7,7.74165 4.7,8.79375 L4.7,26.00625 C4.7,27.05835 5.5604,27.91875 6.6125,27.91875 L33.3875,27.91875 C34.4396,27.91875 35.3,27.05835 35.3,26.00625 L35.3,8.79375 C35.3,7.74165 34.4396,6.88125 33.3875,6.88125 M33.3875,8.31585 C33.6467,8.31585 33.8654,8.53455 33.8654,8.79375 L33.8654,26.00625 C33.8654,26.26545 33.6467,26.48415 33.3875,26.48415 L6.6125,26.48415 C6.3533,26.48415 6.1346,26.26545 6.1346,26.00625 L6.1346,8.79375 C6.1346,8.53455 6.3533,8.31585 6.6125,8.31585 L33.3875,8.31585" id="Fill-8" fill="#92B3C3"></path>
        </g>
    </g>
</svg>