<?xml version="1.0" encoding="utf-8"?>
<!-- Generator: Adobe Illustrator 18.0.0, SVG Export Plug-In . SVG Version: 6.00 Build 0)  -->
<!DOCTYPE svg PUBLIC "-//W3C//DTD SVG 1.1//EN" "http://www.w3.org/Graphics/SVG/1.1/DTD/svg11.dtd">
<svg version="1.1" id="Layer_1" xmlns="http://www.w3.org/2000/svg" xmlns:xlink="http://www.w3.org/1999/xlink" x="0px" y="0px"
	 viewBox="1.5 1.5 20.9 20.8" enable-background="new 1.5 1.5 20.9 20.8" xml:space="preserve">
<g>
	<defs>
		<rect id="SVGID_1_" x="-1125" y="-389" width="1440" height="1024"/>
	</defs>
	<clipPath id="SVGID_2_">
		<use xlink:href="#SVGID_1_"  overflow="visible"/>
	</clipPath>
	<g clip-path="url(#SVGID_2_)">
		<path fill="#03BF9B" d="M12,22C6.5,22,2,17.5,2,12C2,6.5,6.5,2,12,2c5.5,0,10,4.5,10,10C22,17.5,17.5,22,12,22"/>
	</g>
</g>
<g>
	<defs>
		<rect id="SVGID_3_" x="-1125" y="-389" width="1440" height="1024"/>
	</defs>
	<clipPath id="SVGID_4_">
		<use xlink:href="#SVGID_3_"  overflow="visible"/>
	</clipPath>
	<g clip-path="url(#SVGID_4_)">
		<path fill="#FFFFFF" d="M10.7,16.2c-0.2,0-0.5-0.1-0.7-0.3l-3.2-3.2l1.4-1.4l2.6,2.6l5.8-5.8l1.4,1.4l-6.5,6.5
			C11.2,16.1,11,16.2,10.7,16.2"/>
	</g>
</g>
</svg>
